
<svg xmlns="http://www.w3.org/2000/svg" width="1024" height="409.28" viewBox="0 0 1024 409.28">
  <path fill="#00A8E1" d="M349.03 237.508c-20.992-14.816-50.208-22.56-75.456-22.56-17.632 0-37.44 3.584-52.352 11.264-22.464 11.264-32.32 27.584-32.32 49.44 0 49.44 74.656 55.712 111.04 55.712 9.088 0 17.568-0.512 26.112-1.408l-25.568 16.704c-16.704 10.976-39.04 16.384-58.752 16.384-44.32 0-66.752-22.464-66.752-62.016 0-49.408 43.392-75.456 89.088-75.456 25.12 0 49.44 6.304 67.264 25.088l-43.136 27.68z"/>
  <path fill="#00A8E1" d="M506.56 207.388c0 16.32-5.952 35.808-20.384 47.264-11.488 9.216-27.2 13.44-41.632 13.44-23.68 0-46.752-17.568-46.752-44.416 0-51.04 63.488-61.056 95.68-61.056v45.792zm58.112-56.736c0-29.056-14.016-58.752-43.968-70.496-17.12-6.816-35.392-8.416-53.504-8.416-52.544 0-101.504 27.456-101.504 85.408 0 62.656 48.32 89.408 105.6 89.408 50.752 0 90.752-28.32 90.752-82.816v-13.12z"/>
  <path fill="#00A8E1" d="M649.408 141.148c18.656 0 38.112 6.304 51.616 19.392l39.264-38.432c-25.696-24.32-59.872-37.44-93.12-37.44-59.744 0-115.04 43.296-115.04 105.312 0 63.36 53.504 104.832 115.04 104.832 33.504 0 67.264-13.824 92.16-37.44l-41.088-39.808c-13.696 13.12-33.504 19.872-51.872 19.872-33.312 0-58.624-23.424-58.624-47.744s25.312-47.744 61.664-47.744z"/>
</svg>
